<svg xmlns="http://www.w3.org/2000/svg" xmlns:xlink="http://www.w3.org/1999/xlink" width="500" zoomAndPan="magnify" viewBox="0 0 375 374.999991" height="500" preserveAspectRatio="xMidYMid meet" version="1.0"><defs><g/><clipPath id="id1"><path d="M 0 0 L 374.699219 0 L 374.699219 374.699219 L 0 374.699219 Z M 0 0 " clip-rule="nonzero"/></clipPath></defs><g clip-path="url(#id1)"><path fill="#333333" d="M 187.351562 374.699219 C 137.332031 374.699219 90.230469 355.230469 54.886719 319.8125 C 19.46875 284.46875 0 237.371094 0 187.351562 C 0 137.332031 19.46875 90.230469 54.886719 54.886719 C 90.230469 19.46875 137.332031 0 187.351562 0 C 237.371094 0 284.46875 19.46875 319.8125 54.886719 C 355.230469 90.304688 374.699219 137.332031 374.699219 187.351562 C 374.699219 237.371094 355.230469 284.46875 319.8125 319.8125 C 284.46875 355.230469 237.371094 374.699219 187.351562 374.699219 Z M 187.351562 11.230469 C 140.324219 11.230469 96.070312 29.578125 62.824219 62.824219 C 29.578125 96.070312 11.230469 140.324219 11.230469 187.351562 C 11.230469 234.375 29.578125 278.628906 62.824219 311.875 C 96.070312 345.121094 140.324219 363.46875 187.351562 363.46875 C 234.375 363.46875 278.628906 345.121094 311.875 311.875 C 345.121094 278.628906 363.46875 234.375 363.46875 187.351562 C 363.46875 140.324219 345.121094 96.070312 311.875 62.824219 C 278.628906 29.578125 234.375 11.230469 187.351562 11.230469 Z M 187.351562 11.230469 " fill-opacity="1" fill-rule="nonzero"/></g><g fill="#000000" fill-opacity="1"><g transform="translate(63.764918, 258.647501)"><g><path d="M 42.921875 1 C 41.179688 1 39.773438 0.832031 38.703125 0.5 C 37.628906 0.164062 37.09375 -0.398438 37.09375 -1.203125 C 37.09375 -2.140625 37.628906 -2.875 38.703125 -3.40625 C 39.773438 -3.945312 41.445312 -4.414062 43.71875 -4.8125 C 48.800781 -5.75 52.675781 -7.382812 55.34375 -9.71875 C 58.019531 -12.0625 59.359375 -15.640625 59.359375 -20.453125 L 59.359375 -98.265625 C 59.359375 -104.421875 59.222656 -109.132812 58.953125 -112.40625 C 58.691406 -115.675781 58.257812 -117.976562 57.65625 -119.3125 C 57.050781 -120.65625 56.21875 -121.394531 55.15625 -121.53125 C 53.28125 -121.9375 51.304688 -122.171875 49.234375 -122.234375 C 47.160156 -122.296875 44.382812 -122.328125 40.90625 -122.328125 L 31.484375 -122.328125 C 28.273438 -122.328125 25.097656 -121.691406 21.953125 -120.421875 C 18.816406 -119.148438 16.515625 -117.179688 15.046875 -114.515625 C 14.640625 -113.847656 13.96875 -112.878906 13.03125 -111.609375 C 12.09375 -110.335938 11.085938 -109.234375 10.015625 -108.296875 C 8.953125 -107.359375 7.882812 -106.890625 6.8125 -106.890625 C 6.28125 -106.890625 5.914062 -107.15625 5.71875 -107.6875 C 5.519531 -108.226562 5.421875 -108.832031 5.421875 -109.5 C 5.421875 -110.832031 5.753906 -112.171875 6.421875 -113.515625 C 8.285156 -117.390625 9.648438 -120.828125 10.515625 -123.828125 C 11.390625 -126.835938 12.097656 -130.414062 12.640625 -134.5625 C 12.898438 -136.832031 13.394531 -138.164062 14.125 -138.5625 C 14.863281 -138.96875 15.503906 -139.171875 16.046875 -139.171875 C 16.578125 -139.171875 17.410156 -138.367188 18.546875 -136.765625 C 19.679688 -135.160156 20.519531 -133.828125 21.0625 -132.765625 C 21.863281 -131.421875 23.703125 -130.414062 26.578125 -129.75 C 29.453125 -129.082031 32.289062 -128.75 35.09375 -128.75 L 105.6875 -128.75 C 110.363281 -128.75 114.171875 -129.015625 117.109375 -129.546875 C 120.054688 -130.085938 122.597656 -130.828125 124.734375 -131.765625 C 126.335938 -132.566406 127.640625 -133.429688 128.640625 -134.359375 C 129.648438 -135.296875 130.957031 -135.765625 132.5625 -135.765625 C 132.957031 -135.765625 133.289062 -135.265625 133.5625 -134.265625 C 133.832031 -133.265625 133.96875 -132.226562 133.96875 -131.15625 C 133.96875 -130.488281 133.863281 -129.550781 133.65625 -128.34375 C 133.457031 -127.144531 133.289062 -126.210938 133.15625 -125.546875 C 132.757812 -123.140625 132.394531 -121.398438 132.0625 -120.328125 C 131.726562 -119.253906 131.492188 -118.316406 131.359375 -117.515625 C 131.222656 -116.710938 131.15625 -115.441406 131.15625 -113.703125 L 131.15625 -111.296875 C 131.15625 -110.097656 130.882812 -108.726562 130.34375 -107.1875 C 129.8125 -105.65625 129.015625 -104.890625 127.953125 -104.890625 C 127.015625 -104.890625 126.273438 -105.625 125.734375 -107.09375 C 125.203125 -108.5625 124.671875 -110.566406 124.140625 -113.109375 C 123.609375 -115.910156 122.003906 -118.144531 119.328125 -119.8125 C 116.648438 -121.488281 112.101562 -122.328125 105.6875 -122.328125 L 85.4375 -122.328125 C 82.488281 -122.328125 80.28125 -121.925781 78.8125 -121.125 C 77.34375 -120.320312 76.40625 -118.316406 76 -115.109375 C 75.601562 -111.898438 75.40625 -106.617188 75.40625 -99.265625 L 75.40625 -20.453125 C 75.40625 -15.640625 76.804688 -12.0625 79.609375 -9.71875 C 82.421875 -7.382812 86.300781 -5.75 91.25 -4.8125 C 93.519531 -4.414062 95.1875 -3.945312 96.25 -3.40625 C 97.320312 -2.875 97.859375 -2.140625 97.859375 -1.203125 C 97.859375 -0.398438 97.320312 0.164062 96.25 0.5 C 95.1875 0.832031 93.785156 1 92.046875 1 C 88.441406 1 85.46875 0.898438 83.125 0.703125 C 80.78125 0.503906 78.539062 0.335938 76.40625 0.203125 C 74.269531 0.0664062 71.664062 0 68.59375 0 C 65.25 0 62.335938 0.0664062 59.859375 0.203125 C 57.390625 0.335938 54.847656 0.503906 52.234375 0.703125 C 49.628906 0.898438 46.523438 1 42.921875 1 Z M 42.921875 1 "/></g></g></g><g fill="#000000" fill-opacity="1"><g transform="translate(198.131419, 258.647501)"><g><path d="M 13.234375 1 C 11.492188 1 10.085938 0.832031 9.015625 0.5 C 7.953125 0.164062 7.421875 -0.398438 7.421875 -1.203125 C 7.421875 -2.804688 9.625 -4.007812 14.03125 -4.8125 C 19.113281 -5.75 22.859375 -7.285156 25.265625 -9.421875 C 27.671875 -11.566406 28.875 -15.046875 28.875 -19.859375 L 28.875 -110.09375 C 28.875 -114.90625 27.90625 -118.316406 25.96875 -120.328125 C 24.03125 -122.335938 20.519531 -123.804688 15.4375 -124.734375 C 13.164062 -125.140625 11.492188 -125.675781 10.421875 -126.34375 C 9.359375 -127.007812 8.828125 -127.8125 8.828125 -128.75 C 8.828125 -129.550781 9.359375 -130.117188 10.421875 -130.453125 C 11.492188 -130.785156 12.898438 -130.953125 14.640625 -130.953125 C 19.722656 -130.953125 24.035156 -130.882812 27.578125 -130.75 C 31.117188 -130.625 34.59375 -130.523438 38 -130.453125 C 41.414062 -130.390625 45.460938 -130.359375 50.140625 -130.359375 C 54.546875 -130.359375 59.1875 -130.390625 64.0625 -130.453125 C 68.945312 -130.523438 73.460938 -130.5625 77.609375 -130.5625 C 82.160156 -130.6875 86.003906 -130.78125 89.140625 -130.84375 C 92.285156 -130.914062 94.125 -130.953125 94.65625 -130.953125 C 95.320312 -130.953125 96.054688 -130.816406 96.859375 -130.546875 C 97.660156 -130.285156 98.128906 -129.820312 98.265625 -129.15625 C 98.929688 -125.40625 99.597656 -121.691406 100.265625 -118.015625 C 100.941406 -114.335938 101.28125 -111.164062 101.28125 -108.5 C 101.28125 -107.289062 100.976562 -106.484375 100.375 -106.078125 C 99.769531 -105.679688 99.132812 -105.484375 98.46875 -105.484375 C 97.800781 -105.484375 97.332031 -105.648438 97.0625 -105.984375 C 96.789062 -106.316406 96.523438 -106.820312 96.265625 -107.5 C 95.597656 -109.769531 94.925781 -111.941406 94.25 -114.015625 C 93.582031 -116.085938 92.78125 -117.585938 91.84375 -118.515625 C 89.976562 -120.660156 87.90625 -122.097656 85.625 -122.828125 C 83.351562 -123.566406 80.945312 -123.9375 78.40625 -123.9375 L 52.140625 -123.9375 C 51.066406 -123.9375 49.59375 -123.332031 47.71875 -122.125 C 45.851562 -120.925781 44.921875 -119.390625 44.921875 -117.515625 L 44.921875 -75 C 44.921875 -73.800781 45.285156 -72.765625 46.015625 -71.890625 C 46.753906 -71.023438 47.59375 -70.59375 48.53125 -70.59375 L 68.390625 -70.59375 C 72.265625 -70.59375 74.9375 -71.289062 76.40625 -72.6875 C 77.875 -74.09375 79.078125 -76.671875 80.015625 -80.421875 C 80.816406 -83.359375 82.019531 -84.828125 83.625 -84.828125 C 84.164062 -84.828125 84.734375 -84.5625 85.328125 -84.03125 C 85.929688 -83.5 86.234375 -82.695312 86.234375 -81.625 C 86.234375 -81.09375 86.195312 -79.890625 86.125 -78.015625 C 86.0625 -76.140625 85.960938 -74.195312 85.828125 -72.1875 C 85.703125 -70.1875 85.640625 -68.648438 85.640625 -67.578125 C 85.640625 -66.242188 85.671875 -64.472656 85.734375 -62.265625 C 85.796875 -60.054688 85.859375 -57.945312 85.921875 -55.9375 C 85.992188 -53.9375 86.03125 -52.671875 86.03125 -52.140625 C 86.03125 -51.203125 85.929688 -50.398438 85.734375 -49.734375 C 85.535156 -49.066406 85.035156 -48.734375 84.234375 -48.734375 C 82.222656 -48.734375 80.679688 -50.875 79.609375 -55.15625 C 78.804688 -58.226562 77.738281 -60.5 76.40625 -61.96875 C 75.070312 -63.4375 73.066406 -64.171875 70.390625 -64.171875 L 51.734375 -64.171875 C 49.460938 -64.171875 47.757812 -63.867188 46.625 -63.265625 C 45.488281 -62.671875 44.921875 -61.234375 44.921875 -58.953125 L 44.921875 -20.453125 C 44.921875 -15.367188 45.988281 -11.859375 48.125 -9.921875 C 50.269531 -7.984375 53.613281 -7.015625 58.15625 -7.015625 L 73 -7.015625 C 77.28125 -7.015625 80.859375 -7.25 83.734375 -7.71875 C 86.609375 -8.1875 89.113281 -9.085938 91.25 -10.421875 C 93.382812 -11.898438 95.285156 -13.84375 96.953125 -16.25 C 98.628906 -18.65625 100.539062 -21.863281 102.6875 -25.875 C 103.082031 -26.675781 103.546875 -27.34375 104.078125 -27.875 C 104.617188 -28.40625 105.222656 -28.609375 105.890625 -28.484375 C 106.554688 -28.347656 107.085938 -28.046875 107.484375 -27.578125 C 107.890625 -27.109375 108.09375 -26.472656 108.09375 -25.671875 C 108.09375 -24.460938 107.757812 -22.351562 107.09375 -19.34375 C 106.425781 -16.34375 105.585938 -13.238281 104.578125 -10.03125 C 103.578125 -6.820312 102.675781 -4.28125 101.875 -2.40625 C 101.476562 -1.46875 101.113281 -0.664062 100.78125 0 C 100.445312 0.664062 99.875 1 99.0625 1 C 92.644531 1 86.695312 0.929688 81.21875 0.796875 C 75.738281 0.671875 70.523438 0.539062 65.578125 0.40625 C 60.628906 0.269531 55.78125 0.132812 51.03125 0 C 46.289062 -0.132812 41.378906 -0.203125 36.296875 -0.203125 C 33.359375 -0.203125 30.816406 -0.101562 28.671875 0.09375 C 26.535156 0.300781 24.332031 0.503906 22.0625 0.703125 C 19.789062 0.898438 16.847656 1 13.234375 1 Z M 13.234375 1 "/></g></g></g></svg>